<mxGraphModel>
  <root>
    <mxCell id="0" />
    <mxCell id="1" parent="0" />
    <mxCell id="2" value="GSM Registration" style="swimlane;startSize=30;horizontal=1;" vertex="1" parent="1">
      <mxGeometry x="0" y="0" width="2000" height="800" as="geometry" />
    </mxCell>
    <mxCell id="3" value="User" style="shape=note;whiteSpace=wrap;html=1;backgroundOutline=1;darkOpacity=0.05;fillColor=#fee750;strokeColor=none;fontSize=16;fontStyle=0;rotation=0;shadow=1;" vertex="1" parent="2">
      <mxGeometry x="20" y="20" width="120" height="120" as="geometry" />
    </mxCell>
    <mxCell id="4" value="User" style="shape=note;whiteSpace=wrap;html=1;backgroundOutline=1;darkOpacity=0.05;fillColor=#fee750;strokeColor=none;fontSize=16;fontStyle=0;rotation=0;shadow=1;" vertex="1" parent="2">
      <mxGeometry x="20" y="160" width="120" height="120" as="geometry" />
    </mxCell>
    <mxCell id="5" value="Draft User Profile" style="shape=note;whiteSpace=wrap;html=1;backgroundOutline=1;darkOpacity=0.05;fillColor=#b0deb3;strokeColor=none;fontSize=16;fontStyle=0;rotation=0;shadow=1;" vertex="1" parent="2">
      <mxGeometry x="160" y="20" width="120" height="120" as="geometry" />
    </mxCell>
    <mxCell id="6" value="Register User" style="shape=note;whiteSpace=wrap;html=1;backgroundOutline=1;darkOpacity=0.05;fillColor=#a7c5fc;strokeColor=none;fontSize=16;fontStyle=0;rotation=0;shadow=1;" vertex="1" parent="2">
      <mxGeometry x="300" y="20" width="120" height="120" as="geometry" />
    </mxCell>
    <mxCell id="7" value="Policy1" style="shape=note;whiteSpace=wrap;html=1;backgroundOutline=1;darkOpacity=0.05;fillColor=#fef5b2;strokeColor=none;fontSize=16;fontStyle=0;rotation=0;shadow=1;" vertex="1" parent="2">
      <mxGeometry x="440" y="20" width="240" height="180" as="geometry" />
    </mxCell>
    <mxCell id="8" value="User Registered" style="shape=note;whiteSpace=wrap;html=1;backgroundOutline=1;darkOpacity=0.05;fillColor=#feae57;strokeColor=none;fontSize=16;fontStyle=0;rotation=0;shadow=1;" vertex="1" parent="2">
      <mxGeometry x="440" y="220" width="120" height="120" as="geometry" />
    </mxCell>
    <mxCell id="9" value="Generate OTP Process" style="shape=note;whiteSpace=wrap;html=1;backgroundOutline=1;darkOpacity=0.05;fillColor=#fef5b2;strokeColor=none;fontSize=16;fontStyle=0;rotation=0;shadow=1;" vertex="1" parent="2">
      <mxGeometry x="300" y="220" width="240" height="180" as="geometry" />
    </mxCell>
    <mxCell id="10" value="Generate OTP" style="shape=note;whiteSpace=wrap;html=1;backgroundOutline=1;darkOpacity=0.05;fillColor=#a7c5fc;strokeColor=none;fontSize=16;fontStyle=0;rotation=0;shadow=1;" vertex="1" parent="2">
      <mxGeometry x="300" y="420" width="120" height="120" as="geometry" />
    </mxCell>
    <mxCell id="11" value="Validate OTP Process" style="shape=note;whiteSpace=wrap;html=1;backgroundOutline=1;darkOpacity=0.05;fillColor=#fef5b2;strokeColor=none;fontSize=16;fontStyle=0;rotation=0;shadow=1;" vertex="1" parent="2">
      <mxGeometry x="440" y="420" width="240" height="180" as="geometry" />
    </mxCell>
    <mxCell id="12" value="Register OTP Generated" style="shape=note;whiteSpace=wrap;html=1;backgroundOutline=1;darkOpacity=0.05;fillColor=#feae57;strokeColor=none;fontSize=16;fontStyle=0;rotation=0;shadow=1;" vertex="1" parent="2">
      <mxGeometry x="440" y="620" width="120" height="120" as="geometry" />
    </mxCell>
    <mxCell id="13" value="Send OTP Process" style="shape=note;whiteSpace=wrap;html=1;backgroundOutline=1;darkOpacity=0.05;fillColor=#fef5b2;strokeColor=none;fontSize=16;fontStyle=0;rotation=0;shadow=1;" vertex="1" parent="2">
      <mxGeometry x="300" y="620" width="240" height="180" as="geometry" />
    </mxCell>
    <mxCell id="14" value="Send OTP" style="shape=note;whiteSpace=wrap;html=1;backgroundOutline=1;darkOpacity=0.05;fillColor=#a7c5fc;strokeColor=none;fontSize=16;fontStyle=0;rotation=0;shadow=1;" vertex="1" parent="2">
      <mxGeometry x="300" y="820" width="120" height="120" as="geometry" />
    </mxCell>
    <mxCell id="15" value="Email Service" style="shape=note;whiteSpace=wrap;html=1;backgroundOutline=1;darkOpacity=0.05;fillColor=#ffb3c5;strokeColor=none;fontSize=16;fontStyle=0;rotation=0;shadow=1;" vertex="1" parent="2">
      <mxGeometry x="440" y="820" width="120" height="120" as="geometry" />
    </mxCell>
    <mxCell id="16" style="edgeStyle=orthogonalEdgeStyle;rounded=0;orthogonalLoop=1;jettySize=auto;html=1;" edge="1" parent="2" source="3" target="6">
      <mxGeometry relative="1" as="geometry" />
    </mxCell>
    <mxCell id="17" style="edgeStyle=orthogonalEdgeStyle;rounded=0;orthogonalLoop=1;jettySize=auto;html=1;" edge="1" parent="2" source="6" target="7">
      <mxGeometry relative="1" as="geometry" />
    </mxCell>
    <mxCell id="18" style="edgeStyle=orthogonalEdgeStyle;rounded=0;orthogonalLoop=1;jettySize=auto;html=1;" edge="1" parent="2" source="7" target="8">
      <mxGeometry relative="1" as="geometry" />
    </mxCell>
    <mxCell id="19" style="edgeStyle=orthogonalEdgeStyle;rounded=0;orthogonalLoop=1;jettySize=auto;html=1;" edge="1" parent="2" source="8" target="5">
      <mxGeometry relative="1" as="geometry" />
    </mxCell>
    <mxCell id="20" style="edgeStyle=orthogonalEdgeStyle;rounded=0;orthogonalLoop=1;jettySize=auto;html=1;" edge="1" parent="2" source="5" target="4">
      <mxGeometry relative="1" as="geometry" />
    </mxCell>
    <mxCell id="21" style="edgeStyle=orthogonalEdgeStyle;rounded=0;orthogonalLoop=1;jettySize=auto;html=1;" edge="1" parent="2" source="4" target="9">
      <mxGeometry relative="1" as="geometry" />
    </mxCell>
    <mxCell id="22" style="edgeStyle=orthogonalEdgeStyle;rounded=0;orthogonalLoop=1;jettySize=auto;html=1;" edge="1" parent="2" source="9" target="10">
      <mxGeometry relative="1" as="geometry" />
    </mxCell>
    <mxCell id="23" style="edgeStyle=orthogonalEdgeStyle;rounded=0;orthogonalLoop=1;jettySize=auto;html=1;" edge="1" parent="2" source="10" target="11">
      <mxGeometry relative="1" as="geometry" />
    </mxCell>
    <mxCell id="24" style="edgeStyle=orthogonalEdgeStyle;rounded=0;orthogonalLoop=1;jettySize=auto;html=1;" edge="1" parent="2" source="11" target="12">
      <mxGeometry relative="1" as="geometry" />
    </mxCell>
    <mxCell id="25" style="edgeStyle=orthogonalEdgeStyle;rounded=0;orthogonalLoop=1;jettySize=auto;html=1;" edge="1" parent="2" source="12" target="13">
      <mxGeometry relative="1" as="geometry" />
    </mxCell>
    <mxCell id="26" style="edgeStyle=orthogonalEdgeStyle;rounded=0;orthogonalLoop=1;jettySize=auto;html=1;" edge="1" parent="2" source="13" target="14">
      <mxGeometry relative="1" as="geometry" />
    </mxCell>
    <mxCell id="27" style="edgeStyle=orthogonalEdgeStyle;rounded=0;orthogonalLoop=1;jettySize=auto;html=1;" edge="1" parent="2" source="14" target="15">
      <mxGeometry relative="1" as="geometry" />
    </mxCell>
  </root>
</mxGraphModel>